# xmcd CD database file
#
# Track frame offsets:
#	150
#	16657
#	26069
#	43994
#	56219
#	67244
#	82094
#	94769
#	110594
#	119369
#	136244
#	154769
#	175434
#	182109
#	191732
#	200732
#	214682
#	231894
#	249969
#	263619
#	284712
#	295287
#	301862
#	320612
#	327662
#
# Disc length: 4640 seconds
#
# Revision: 0
# Processed by: cddbd v1.5.1PL0 Copyright (c) Steve Scherf et al.
# Submitted via: CDex 1.51
#
DISCID=88121e19
DTITLE=FHC Jazz - Jazz, Ala The Christmas Season
DYEAR=2003
DGENRE=Jazz
TTITLE0=3rd Hour - No B-3 Blues
TTITLE1=3rd Hour - The First Noel
TTITLE2=3rd Hour - Foggy Morning in Dillard
TTITLE3=4th Hour - Sneakers
TTITLE4=4th Hour - God Rest Ye Merry Gentlemen
TTITLE5=4th Hour - Song for My Father
TTITLE6=4th Hour - We Three Kings
TTITLE7=Spartan Jazz - Blues, Blues, Blues
TTITLE8=Spartan Jazz - Rudolph
TTITLE9=Spartan Jazz - Angel Eyes
TTITLE10=Spartan Jazz - Birdland
TTITLE11=Spartan Jazz - O Come Emmanuel
TTITLE12=3rd Hour - Cool King Wencaslas
TTITLE13=3rd Hour - Perdido
TTITLE14=3rd Hour - Basically Basie
TTITLE15=3rd Hour - Silent Night
TTITLE16=3rd Hour - A Riff in Time
TTITLE17=4th Hour - Blues for Tripod
TTITLE18=4th Hour - Jolly Old St. Nick
TTITLE19=4th Hour - Samba De Los Iguanas
TTITLE20=Spartan Jazz - Boogie Woogie Bugle Boy
TTITLE21=Spartan Jazz - A Royal Christmas Parade
TTITLE22=Spartan Jazz - Sing, Sing Sing
TTITLE23=Spartan Jazz - Holly Jolly Christmas
TTITLE24=Spartan Jazz - Carnival
EXTD=YEAR: 2003
EXTT0=
EXTT1=
EXTT2=
EXTT3=
EXTT4=
EXTT5=
EXTT6=
EXTT7=
EXTT8=
EXTT9=
EXTT10=
EXTT11=
EXTT12=
EXTT13=
EXTT14=
EXTT15=
EXTT16=
EXTT17=
EXTT18=
EXTT19=
EXTT20=
EXTT21=
EXTT22=
EXTT23=
EXTT24=
PLAYORDER=
